<svg width="43" height="12" viewBox="0 0 43 12" fill="none" xmlns="http://www.w3.org/2000/svg">
<path d="M8.64746 0.818182H0.792347V11H2.3236V2.13068H7.11621V11H8.64746V0.818182ZM14.0938 11.1541C16.2465 11.1541 17.6535 9.57812 17.6535 7.21662C17.6535 4.8402 16.2465 3.2642 14.0938 3.2642C11.9411 3.2642 10.5342 4.8402 10.5342 7.21662C10.5342 9.57812 11.9411 11.1541 14.0938 11.1541ZM14.0988 9.90625C12.6919 9.90625 12.0356 8.67827 12.0356 7.21165C12.0356 5.75 12.6919 4.5071 14.0988 4.5071C15.4958 4.5071 16.1521 5.75 16.1521 7.21165C16.1521 8.67827 15.4958 9.90625 14.0988 9.90625ZM20.7694 8.9169V3.36364H19.3128V11H20.9285L24.2794 5.44176V11H25.7361V3.36364H24.1352L20.7694 8.9169ZM30.9513 11.1541C32.7559 11.1541 33.9243 10.0703 34.0883 8.58381H32.6416C32.4527 9.40909 31.8113 9.89631 30.9612 9.89631C29.7034 9.89631 28.893 8.8473 28.893 7.18182C28.893 5.54616 29.7183 4.51705 30.9612 4.51705C31.9058 4.51705 32.4825 5.11364 32.6416 5.82955H34.0883C33.9292 4.28835 32.6714 3.2642 30.9363 3.2642C28.7836 3.2642 27.3916 4.88494 27.3916 7.21662C27.3916 9.51847 28.7339 11.1541 30.9513 11.1541ZM35.678 11H37.1645V7.94744H38.129L40.4308 11H42.2753L39.2824 7.07741L42.2405 3.36364H40.401L37.8804 6.56534H37.1645V3.36364H35.678V11Z" fill="white"/>
</svg>
